<svg width="264" height="156" viewBox="0 0 264 156" fill="none" xmlns="http://www.w3.org/2000/svg">
<path d="M86.1333 115.131H42.5916L34.1124 133.548H20.6749L65.2374 37.402L107.467 133.548H94.1749L86.1333 115.131ZM80.8624 103.006L64.7999 66.9228L48.1333 103.006H80.8624Z" fill="white"/>
<path d="M150.431 85.902L188.847 133.548H173.076L142.972 96.277L113.889 135.881V38.4229H126.306V98.4854L170.16 38.4229H185.201L150.431 85.902Z" fill="white"/>
<path d="M166.202 152.642L169.702 143.871H171.661L175.14 152.642H173.015L172.411 151.121H168.931L168.348 152.642H166.202ZM169.452 149.558H171.911L170.681 146.35L169.452 149.558Z" fill="white"/>
<path d="M196.155 38.4229H256.946V50.6937H208.28V79.777H245.55V92.0479H208.28V121.423H256.946V133.548H196.155V38.4229Z" fill="white"/>
<path d="M192.066 152.642V143.871H195.524C196.451 143.871 197.264 144.058 197.962 144.433C198.655 144.798 199.191 145.308 199.566 145.975C199.951 146.631 200.149 147.386 200.149 148.246C200.149 149.136 199.951 149.907 199.566 150.558C199.191 151.215 198.655 151.725 197.962 152.1C197.264 152.465 196.451 152.642 195.524 152.642H192.066ZM194.045 150.808H195.504C196.014 150.808 196.467 150.704 196.858 150.496C197.243 150.277 197.55 149.975 197.774 149.6C197.993 149.215 198.108 148.761 198.108 148.246C198.108 147.735 197.993 147.287 197.774 146.912C197.55 146.527 197.238 146.225 196.837 146.017C196.446 145.798 195.988 145.683 195.462 145.683H194.045V150.808Z" fill="white"/>
<path d="M179.362 152.642V143.871H181.05L184.925 149.204V143.871H186.904V152.642H185.217L181.342 147.267V152.642H179.362Z" fill="white"/>
<path d="M210.789 152.642V143.871H212.476L215.601 148.412L218.706 143.871H220.393V152.642H218.414V147.371L216.268 150.475H214.893L212.768 147.35V152.642H210.789Z" fill="white"/>
<path d="M229.695 152.808C228.789 152.808 227.987 152.616 227.278 152.225C226.57 151.84 226.013 151.303 225.612 150.621C225.221 149.944 225.028 149.152 225.028 148.246C225.028 147.36 225.221 146.574 225.612 145.892C226.013 145.199 226.57 144.657 227.278 144.267C227.987 143.881 228.789 143.683 229.695 143.683C230.622 143.683 231.434 143.881 232.132 144.267C232.841 144.657 233.393 145.199 233.799 145.892C234.2 146.574 234.403 147.36 234.403 148.246C234.403 149.152 234.2 149.944 233.799 150.621C233.393 151.303 232.841 151.84 232.132 152.225C231.434 152.616 230.622 152.808 229.695 152.808ZM227.049 148.246C227.049 148.777 227.158 149.241 227.382 149.642C227.617 150.048 227.929 150.366 228.32 150.6C228.721 150.824 229.179 150.933 229.695 150.933C230.221 150.933 230.684 150.824 231.091 150.6C231.492 150.366 231.799 150.048 232.007 149.642C232.226 149.241 232.341 148.777 232.341 148.246C232.341 147.72 232.226 147.261 232.007 146.871C231.799 146.47 231.492 146.157 231.091 145.933C230.684 145.699 230.221 145.579 229.695 145.579C229.179 145.579 228.721 145.699 228.32 145.933C227.929 146.157 227.617 146.47 227.382 146.871C227.158 147.261 227.049 147.72 227.049 148.246Z" fill="white"/>
<path d="M239.043 152.642V143.871H242.793C243.459 143.871 244.032 143.996 244.522 144.246C245.022 144.485 245.402 144.829 245.668 145.287C245.928 145.735 246.063 146.267 246.063 146.892C246.063 147.532 245.918 148.09 245.626 148.558C245.334 149.017 244.923 149.366 244.397 149.6L246.23 152.642H243.918L242.334 149.912H241.022V152.642H239.043ZM241.001 148.225H242.522C243.006 148.225 243.381 148.116 243.647 147.892C243.907 147.657 244.043 147.324 244.043 146.892C244.043 146.475 243.907 146.152 243.647 145.912C243.381 145.678 243.006 145.558 242.522 145.558H241.001V148.225Z" fill="white"/>
<path d="M250.918 152.642V143.871H256.668V145.537H252.898V147.371H256.335V149.037H252.898V150.954H256.814V152.642H250.918Z" fill="white"/>
<path d="M0.802063 149.974V1.3125H13.5781V149.974H0.802063Z" fill="white"/>
<path d="M185.362 28.2834C184.846 28.2834 184.346 28.2105 183.862 28.0751C183.388 27.9396 183.007 27.7573 182.716 27.5334L183.216 26.3876C183.492 26.5959 183.825 26.7626 184.216 26.8876C184.601 27.0126 184.992 27.0751 185.382 27.0751C185.809 27.0751 186.122 27.0126 186.32 26.8876C186.528 26.7626 186.632 26.5959 186.632 26.3876C186.632 26.2209 186.57 26.0907 186.445 25.9917C186.33 25.898 186.179 25.8198 185.987 25.7626C185.789 25.6948 185.533 25.6167 185.216 25.5334C184.716 25.424 184.304 25.3146 183.987 25.2001C183.679 25.0751 183.408 24.8823 183.174 24.6167C182.95 24.3563 182.841 24.0073 182.841 23.5751C182.841 23.1896 182.934 22.8407 183.132 22.5334C183.341 22.2313 183.653 21.9865 184.07 21.8042C184.487 21.6271 184.992 21.5334 185.591 21.5334C186.007 21.5334 186.408 21.5855 186.799 21.6792C187.2 21.7782 187.554 21.924 187.862 22.1167L187.382 23.2626C186.783 22.9188 186.184 22.7417 185.591 22.7417C185.158 22.7417 184.841 22.8146 184.632 22.9501C184.434 23.0907 184.341 23.273 184.341 23.4917C184.341 23.7157 184.455 23.8823 184.695 23.9917C184.929 24.1063 185.283 24.2157 185.757 24.3251C186.257 24.4396 186.664 24.5542 186.987 24.6792C187.304 24.7938 187.575 24.9813 187.799 25.2417C188.018 25.4917 188.132 25.8355 188.132 26.2626C188.132 26.6376 188.028 26.9813 187.82 27.2834C187.612 27.5907 187.299 27.8355 186.882 28.0126C186.466 28.1896 185.955 28.2834 185.362 28.2834Z" fill="white"/>
<path d="M193.767 28.2834C192.819 28.2834 192.085 28.0282 191.559 27.5125C191.043 27.0021 190.788 26.2625 190.788 25.3042V21.6375H192.309V25.2417C192.309 26.424 192.793 27.0125 193.767 27.0125C194.236 27.0125 194.6 26.8771 194.85 26.5959C195.1 26.3042 195.225 25.8563 195.225 25.2417V21.6375H196.725V25.3042C196.725 26.2625 196.46 27.0021 195.934 27.5125C195.418 28.0282 194.694 28.2834 193.767 28.2834Z" fill="white"/>
<path d="M199.885 21.6375H201.406V28.1792H199.885V21.6375Z" fill="white"/>
<path d="M205.981 22.8875H203.897V21.6375H209.585V22.8875H207.502V28.1792H205.981V22.8875Z" fill="white"/>
<path d="M236.727 28.2834C236.044 28.2834 235.435 28.1376 234.893 27.8459C234.352 27.5542 233.919 27.1532 233.602 26.6376C233.294 26.1271 233.143 25.549 233.143 24.9084C233.143 24.273 233.294 23.6948 233.602 23.1792C233.919 22.6688 234.352 22.2626 234.893 21.9709C235.435 21.6792 236.044 21.5334 236.727 21.5334C237.404 21.5334 238.018 21.6792 238.56 21.9709C239.102 22.2626 239.524 22.6688 239.831 23.1792C240.149 23.6948 240.31 24.273 240.31 24.9084C240.31 25.549 240.149 26.1271 239.831 26.6376C239.524 27.1532 239.102 27.5542 238.56 27.8459C238.018 28.1376 237.404 28.2834 236.727 28.2834ZM236.727 27.0126C237.112 27.0126 237.461 26.924 237.768 26.7417C238.086 26.5646 238.331 26.3146 238.497 25.9917C238.675 25.674 238.768 25.3146 238.768 24.9084C238.768 24.5073 238.675 24.148 238.497 23.8251C238.331 23.5073 238.086 23.2626 237.768 23.0959C237.461 22.9188 237.112 22.8251 236.727 22.8251C236.336 22.8251 235.982 22.9188 235.664 23.0959C235.357 23.2626 235.112 23.5073 234.935 23.8251C234.768 24.148 234.685 24.5073 234.685 24.9084C234.685 25.3146 234.768 25.674 234.935 25.9917C235.112 26.3146 235.357 26.5646 235.664 26.7417C235.982 26.924 236.336 27.0126 236.727 27.0126Z" fill="white"/>
<path d="M217.137 26.9709V28.1792H212.075V21.6375H217.012V22.8667H213.575V24.2834H216.616V25.45H213.575V26.9709H217.137Z" fill="white"/>
<path d="M230.339 21.6375V28.1792H228.818V25.4917H225.859V28.1792H224.339V21.6375H225.859V24.2209H228.818V21.6375H230.339Z" fill="white"/>
<path d="M244.472 22.8875H242.388V21.6375H248.076V22.8875H245.992V28.1792H244.472V22.8875Z" fill="white"/>
<path d="M255.628 26.9709V28.1792H250.565V21.6375H255.503V22.8667H252.065V24.2834H255.107V25.45H252.065V26.9709H255.628Z" fill="white"/>
<path d="M258.508 21.6375H260.029V26.95H263.3V28.1792H258.508V21.6375Z" fill="white"/>
<path d="M156.781 155.557H0.786438V142.786H156.781V155.557Z" fill="white"/>
<path d="M220.5 15.5H218.5V3H220.5V8.5L226.5 3H229.5L224.5 8L230 15.5H228L223 9L220.5 11V15.5Z" fill="white" stroke="white"/>
<path d="M217 17.5V17H215V1H217V0.5H214V17.5H217Z" stroke="white"/>
<path d="M231 0.5V1H233V17H231V17.5H234V0.5H231Z" stroke="white"/>
</svg>
