<?xml version="1.0" standalone="no"?>
<!DOCTYPE svg PUBLIC "-//W3C//DTD SVG 20010904//EN"
 "http://www.w3.org/TR/2001/REC-SVG-20010904/DTD/svg10.dtd">
<svg version="1.0" xmlns="http://www.w3.org/2000/svg"
 width="600.000000pt" height="600.000000pt" viewBox="0 0 600.000000 600.000000"
 preserveAspectRatio="xMidYMid meet">
<metadata>
Created by potrace 1.14, written by Peter Selinger 2001-2017
</metadata>
<g transform="translate(0.000000,600.000000) scale(0.100000,-0.100000)"
fill="#000000" stroke="none">
<path d="M2977 5583 c-8 -16 -38 -68 -67 -118 -29 -49 -66 -115 -82 -145 -17
-30 -34 -59 -38 -65 -4 -5 -18 -30 -32 -55 -23 -41 -75 -132 -98 -170 -23 -38
-137 -237 -143 -250 -4 -8 -13 -24 -20 -35 -7 -11 -38 -66 -70 -122 -32 -56
-62 -105 -68 -108 -5 -4 -7 -10 -4 -15 3 -4 -2 -13 -10 -20 -8 -7 -15 -16 -15
-21 0 -5 -11 -26 -23 -47 -13 -20 -95 -161 -182 -312 -87 -151 -166 -288 -176
-305 -10 -16 -27 -47 -36 -67 -10 -21 -21 -38 -25 -38 -5 0 -8 -4 -8 -10 0 -5
-14 -33 -31 -62 -18 -29 -41 -69 -51 -87 -46 -81 -258 -449 -277 -481 -11 -19
-30 -53 -42 -75 -12 -22 -28 -48 -37 -57 -8 -10 -11 -18 -7 -18 4 0 1 -8 -7
-17 -8 -10 -29 -43 -45 -73 -16 -30 -42 -74 -56 -97 -15 -24 -27 -45 -27 -48
0 -3 -12 -24 -27 -48 -14 -23 -40 -67 -57 -97 -16 -30 -42 -75 -58 -100 -15
-25 -33 -56 -40 -70 -7 -14 -36 -65 -65 -114 -29 -49 -53 -90 -53 -92 0 -2
-22 -41 -49 -86 -26 -46 -127 -220 -223 -388 -97 -168 -217 -377 -268 -465
-109 -189 -118 -204 -171 -298 -23 -40 -51 -88 -62 -107 -11 -19 -34 -60 -50
-90 -17 -30 -34 -57 -39 -58 -4 -2 -8 -7 -8 -12 0 -9 -108 -201 -121 -215 -5
-5 -9 -12 -9 -15 0 -10 439 -5 449 5 9 9 50 79 106 180 12 22 72 128 134 235
62 107 191 330 286 495 94 165 216 377 270 470 54 94 117 202 139 242 22 39
43 70 47 68 3 -3 12 -32 18 -66 27 -135 98 -305 176 -424 107 -162 254 -282
416 -344 17 -6 29 -20 33 -38 37 -158 139 -385 203 -451 7 -7 13 -17 13 -21 0
-16 161 -170 217 -207 94 -63 223 -120 298 -131 17 -3 48 -8 70 -12 75 -13
244 -3 330 20 22 6 47 13 55 14 71 15 304 129 430 210 86 55 242 169 282 206
14 13 50 44 79 69 63 54 193 184 257 257 26 30 60 68 75 86 52 58 177 225 177
236 0 5 6 14 13 18 11 7 78 103 103 148 6 11 26 45 45 75 l34 55 9 -28 c6 -15
13 -27 18 -27 4 0 8 -4 8 -9 0 -5 27 -55 60 -111 33 -56 60 -103 60 -105 0 -2
17 -32 38 -66 21 -35 54 -91 72 -124 48 -88 53 -96 81 -140 13 -22 30 -51 37
-65 7 -14 20 -38 30 -55 10 -16 30 -50 44 -75 14 -25 38 -67 55 -95 16 -27 32
-57 36 -65 5 -8 13 -24 20 -35 37 -61 87 -147 87 -150 0 -1 18 -33 40 -69 22
-36 40 -70 40 -76 0 -5 3 -10 8 -10 4 0 17 -22 30 -48 l23 -47 220 0 c125 0
219 4 219 9 0 5 -28 57 -61 115 -34 58 -73 126 -87 151 -13 25 -44 77 -67 115
-23 39 -55 95 -72 125 -26 48 -199 350 -223 390 -13 22 -122 212 -134 235 -6
11 -16 27 -22 35 -6 8 -25 40 -41 70 -35 64 -58 105 -102 178 -17 29 -31 57
-31 62 0 6 -4 10 -10 10 -5 0 -10 4 -10 9 0 9 -53 106 -88 161 -9 14 -17 27
-17 30 0 3 -12 23 -26 45 -43 66 -43 73 4 196 44 113 100 276 97 281 -1 2 4
16 10 33 13 34 76 283 85 333 7 43 14 82 19 107 2 11 7 45 11 75 3 30 9 69 11
85 20 119 38 461 26 469 -17 10 -34 -13 -37 -50 -7 -87 -16 -185 -21 -206 -2
-13 -7 -48 -10 -78 -8 -67 -12 -95 -14 -95 -2 0 -5 -17 -15 -75 -27 -159 -111
-458 -182 -645 -34 -90 -43 -112 -79 -193 l-20 -42 -37 67 c-20 38 -50 91 -66
118 -16 28 -61 106 -100 175 -39 69 -75 132 -80 140 -25 40 -287 495 -290 504
-2 6 -7 13 -10 16 -3 3 -14 21 -25 40 -17 32 -225 394 -247 430 -26 44 -180
312 -214 375 -20 37 -143 250 -164 285 -54 89 -151 263 -151 271 0 5 -4 9 -8
9 -4 0 -15 15 -23 33 -16 33 -159 283 -187 327 -9 14 -15 28 -14 33 1 4 -2 7
-8 7 -5 0 -10 4 -10 9 0 5 -32 64 -72 132 -39 68 -94 163 -121 212 -28 48 -54
87 -58 87 -4 0 -14 -12 -22 -27z m39 -765 c4 -13 10 -25 13 -28 4 -3 18 -25
32 -50 14 -25 87 -152 163 -283 75 -131 145 -253 155 -270 46 -79 135 -235
153 -267 11 -19 32 -55 47 -80 42 -72 53 -92 104 -181 26 -46 57 -100 69 -119
11 -19 30 -53 41 -75 12 -22 24 -42 27 -45 9 -9 51 -84 63 -112 6 -16 15 -28
19 -28 4 0 8 -4 8 -10 0 -5 22 -47 49 -92 26 -46 110 -191 186 -323 189 -329
277 -480 314 -543 17 -29 31 -54 31 -56 0 -2 36 -65 80 -140 44 -75 80 -140
80 -145 0 -5 6 -11 13 -14 15 -5 2 -33 -57 -122 -37 -56 -203 -284 -216 -295
-3 -3 -30 -34 -60 -70 -143 -170 -378 -385 -560 -512 -60 -42 -246 -158 -254
-158 -2 0 -34 -17 -72 -38 -292 -160 -589 -167 -794 -19 -122 88 -221 227
-283 395 l-27 72 53 1 c28 0 66 3 82 5 186 27 302 61 430 127 217 113 478 359
627 592 81 125 162 302 184 400 1 6 10 42 19 80 32 130 24 331 -15 397 -5 10
-10 25 -10 33 0 8 -4 15 -10 15 -5 0 -10 7 -10 15 0 23 -110 128 -160 152 -77
37 -155 55 -245 55 -43 1 -134 -10 -145 -17 -4 -2 -22 -7 -40 -10 -140 -25
-391 -185 -570 -365 -82 -81 -220 -247 -220 -264 0 -3 -12 -22 -26 -43 -33
-48 -136 -253 -128 -253 4 0 2 -6 -4 -12 -16 -21 -69 -197 -86 -288 -25 -136
-26 -146 -28 -245 l-1 -93 -36 20 c-43 24 -128 89 -157 120 -47 51 -117 155
-146 217 -17 36 -36 77 -43 91 -7 14 -14 28 -14 32 -1 4 -3 13 -6 20 -11 33
-37 130 -41 155 -3 15 -7 35 -9 43 -2 8 -7 38 -11 65 -3 28 -8 59 -10 69 -2
11 23 66 57 125 89 154 93 160 129 226 19 33 36 62 39 65 4 3 16 23 28 45 11
22 30 56 42 75 11 19 24 42 28 50 4 8 24 43 45 78 21 34 38 64 38 66 0 2 43
77 95 166 52 89 95 163 95 165 0 2 35 63 78 136 43 74 82 141 86 149 4 8 18
33 31 55 13 22 31 54 40 70 8 17 26 48 40 70 14 22 31 51 38 65 6 14 14 27 17
30 3 3 11 16 18 29 8 13 23 40 34 60 147 259 198 346 206 356 5 6 11 16 13 22
10 27 235 413 241 413 4 0 10 -10 14 -22z m344 -2046 c70 -27 102 -90 103
-196 0 -95 -4 -122 -44 -239 -134 -403 -471 -762 -816 -870 -104 -33 -280 -54
-298 -35 -14 13 -4 226 15 318 6 30 14 66 16 79 3 14 7 28 10 33 3 4 7 18 9
30 6 27 46 130 57 142 4 6 8 18 8 28 0 10 5 18 10 18 6 0 10 9 10 20 0 11 4
20 8 20 5 0 14 16 22 35 8 19 17 35 20 35 4 0 12 12 19 26 12 28 21 39 99 139
223 284 582 483 752 417z"/>
</g>
</svg>
